REM DIRINDEX 1\2,1\3,1\4,1\5
REM DIRNAME cjc046,folder01,folder02,folder03,folder04
TITLE ""
FILE "102.mp3" MP3
  TRACK 01 AUDIO
    TITLE "0:"
    INDEX 01 00:00:00
  TRACK 02 AUDIO
    TITLE "2:cjc046_2231"
    INDEX 01 00:00:07
  TRACK 03 AUDIO
    TITLE "0:"
    INDEX 01 00:01:19
  TRACK 04 AUDIO
    TITLE "3:cjc046_2232"
    INDEX 01 00:01:48
  TRACK 05 AUDIO
    TITLE "0:"
    INDEX 01 00:02:63
  TRACK 06 AUDIO
    TITLE "4:cjc046_2233"
    INDEX 01 00:02:73
  TRACK 07 AUDIO
    TITLE "0:"
    INDEX 01 00:04:09
  TRACK 08 AUDIO
    TITLE "2:cjc046_2234"
    INDEX 01 00:05:12
  TRACK 09 AUDIO
    TITLE "0:"
    INDEX 01 00:06:18
  TRACK 10 AUDIO
    TITLE "3:cjc046_2235"
    INDEX 01 00:06:35
  TRACK 11 AUDIO
    TITLE "0:"
    INDEX 01 00:07:33
  TRACK 12 AUDIO
    TITLE "4:cjc046_2236"
    INDEX 01 00:07:43
  TRACK 13 AUDIO
    TITLE "0:"
    INDEX 01 00:08:48
  TRACK 14 AUDIO
    TITLE "2:cjc046_2237"
    INDEX 01 00:09:59
  TRACK 15 AUDIO
    TITLE "0:"
    INDEX 01 00:10:61
  TRACK 16 AUDIO
    TITLE "3:cjc046_2238"
    INDEX 01 00:11:09
  TRACK 17 AUDIO
    TITLE "0:"
    INDEX 01 00:12:18
  TRACK 18 AUDIO
    TITLE "4:cjc046_2239"
    INDEX 01 00:12:32
  TRACK 19 AUDIO
    TITLE "0:"
    INDEX 01 00:13:33
  TRACK 20 AUDIO
    TITLE "2:cjc046_2240"
    INDEX 01 00:14:39
  TRACK 21 AUDIO
    TITLE "0:"
    INDEX 01 00:15:46
  TRACK 22 AUDIO
    TITLE "3:cjc046_2241"
    INDEX 01 00:15:70
  TRACK 23 AUDIO
    TITLE "0:"
    INDEX 01 00:16:63
  TRACK 24 AUDIO
    TITLE "4:cjc046_2242"
    INDEX 01 00:17:02
  TRACK 25 AUDIO
    TITLE "0:"
    INDEX 01 00:18:09
  TRACK 26 AUDIO
    TITLE "2:cjc046_2243"
    INDEX 01 00:19:15
  TRACK 27 AUDIO
    TITLE "0:"
    INDEX 01 00:20:16
  TRACK 28 AUDIO
    TITLE "3:cjc046_2244"
    INDEX 01 00:20:41
  TRACK 29 AUDIO
    TITLE "0:"
    INDEX 01 00:21:55
  TRACK 30 AUDIO
    TITLE "4:cjc046_2245"
    INDEX 01 00:21:68
  TRACK 31 AUDIO
    TITLE "0:"
    INDEX 01 00:22:70
  TRACK 32 AUDIO
    TITLE "2:cjc046_2246"
    INDEX 01 00:24:04
  TRACK 33 AUDIO
    TITLE "0:"
    INDEX 01 00:25:21
  TRACK 34 AUDIO
    TITLE "3:cjc046_2247"
    INDEX 01 00:25:45
  TRACK 35 AUDIO
    TITLE "0:"
    INDEX 01 00:26:66
  TRACK 36 AUDIO
    TITLE "4:cjc046_2248"
    INDEX 01 00:27:02
  TRACK 37 AUDIO
    TITLE "0:"
    INDEX 01 00:28:21
  TRACK 38 AUDIO
    TITLE "2:cjc046_2249"
    INDEX 01 00:29:29
  TRACK 39 AUDIO
    TITLE "0:"
    INDEX 01 00:30:30
  TRACK 40 AUDIO
    TITLE "3:cjc046_2250"
    INDEX 01 00:30:48
  TRACK 41 AUDIO
    TITLE "0:"
    INDEX 01 00:31:57
  TRACK 42 AUDIO
    TITLE "4:cjc046_2251"
    INDEX 01 00:31:69
  TRACK 43 AUDIO
    TITLE "0:"
    INDEX 01 00:32:72
  TRACK 44 AUDIO
    TITLE "2:cjc046_2252"
    INDEX 01 00:34:06
  TRACK 45 AUDIO
    TITLE "0:"
    INDEX 01 00:35:00
  TRACK 46 AUDIO
    TITLE "3:cjc046_2253"
    INDEX 01 00:35:29
  TRACK 47 AUDIO
    TITLE "0:"
    INDEX 01 00:36:36
  TRACK 48 AUDIO
    TITLE "4:cjc046_2254"
    INDEX 01 00:36:52
  TRACK 49 AUDIO
    TITLE "0:"
    INDEX 01 00:37:48
  TRACK 50 AUDIO
    TITLE "2:cjc046_2255"
    INDEX 01 00:38:59
  TRACK 51 AUDIO
    TITLE "0:"
    INDEX 01 00:40:03
  TRACK 52 AUDIO
    TITLE "3:cjc046_2256"
    INDEX 01 00:40:24
  TRACK 53 AUDIO
    TITLE "0:"
    INDEX 01 00:42:21
  TRACK 54 AUDIO
    TITLE "4:cjc046_2257"
    INDEX 01 00:42:35
  TRACK 55 AUDIO
    TITLE "0:"
    INDEX 01 00:43:54
  TRACK 56 AUDIO
    TITLE "2:cjc046_2258"
    INDEX 01 00:44:58
  TRACK 57 AUDIO
    TITLE "0:"
    INDEX 01 00:45:63
  TRACK 58 AUDIO
    TITLE "3:cjc046_2259"
    INDEX 01 00:46:15
  TRACK 59 AUDIO
    TITLE "0:"
    INDEX 01 00:47:40
  TRACK 60 AUDIO
    TITLE "4:cjc046_2260"
    INDEX 01 00:47:50
  TRACK 61 AUDIO
    TITLE "0:"
    INDEX 01 00:48:57
  TRACK 62 AUDIO
    TITLE "2:cjc046_2261"
    INDEX 01 00:49:69
  TRACK 63 AUDIO
    TITLE "0:"
    INDEX 01 00:51:18
  TRACK 64 AUDIO
    TITLE "3:cjc046_2262"
    INDEX 01 00:51:46
  TRACK 65 AUDIO
    TITLE "0:"
    INDEX 01 00:52:57
  TRACK 66 AUDIO
    TITLE "4:cjc046_2263"
    INDEX 01 00:52:71
  TRACK 67 AUDIO
    TITLE "0:"
    INDEX 01 00:54:25
